<mxfile host="65bd71144e">
    <diagram id="2KUx7QO84_yDkYjGSkxv" name="Page-1">
        <mxGraphModel dx="1852" dy="1577" grid="1" gridSize="10" guides="1" tooltips="1" connect="1" arrows="1" fold="1" page="1" pageScale="1" pageWidth="850" pageHeight="1100" math="0" shadow="0">
            <root>
                <mxCell id="0"/>
                <mxCell id="1" parent="0"/>
                <mxCell id="3" value="Displayable(Abstract)" style="swimlane;fontStyle=0;childLayout=stackLayout;horizontal=1;startSize=26;fillColor=none;horizontalStack=0;resizeParent=1;resizeParentMax=0;resizeLast=0;collapsible=1;marginBottom=0;" vertex="1" parent="1">
                    <mxGeometry x="471" y="-71" width="140" height="52" as="geometry"/>
                </mxCell>
                <mxCell id="4" value="+ display() : None = 0" style="text;strokeColor=none;fillColor=none;align=left;verticalAlign=top;spacingLeft=4;spacingRight=4;overflow=hidden;rotatable=0;points=[[0,0.5],[1,0.5]];portConstraint=eastwest;" vertex="1" parent="3">
                    <mxGeometry y="26" width="140" height="26" as="geometry"/>
                </mxCell>
                <mxCell id="7" value="Dealer" style="swimlane;fontStyle=1;align=center;verticalAlign=top;childLayout=stackLayout;horizontal=1;startSize=26;horizontalStack=0;resizeParent=1;resizeParentMax=0;resizeLast=0;collapsible=1;marginBottom=0;" vertex="1" parent="1">
                    <mxGeometry x="23" y="150" width="250" height="200" as="geometry"/>
                </mxCell>
                <mxCell id="8" value="- __name: str&#10;- __address: str&#10;- __vehicles: list[Vehicle]" style="text;strokeColor=none;fillColor=none;align=left;verticalAlign=top;spacingLeft=4;spacingRight=4;overflow=hidden;rotatable=0;points=[[0,0.5],[1,0.5]];portConstraint=eastwest;" vertex="1" parent="7">
                    <mxGeometry y="26" width="250" height="54" as="geometry"/>
                </mxCell>
                <mxCell id="9" value="" style="line;strokeWidth=1;fillColor=none;align=left;verticalAlign=middle;spacingTop=-1;spacingLeft=3;spacingRight=3;rotatable=0;labelPosition=right;points=[];portConstraint=eastwest;strokeColor=inherit;" vertex="1" parent="7">
                    <mxGeometry y="80" width="250" height="8" as="geometry"/>
                </mxCell>
                <mxCell id="10" value="+ __init__(name, address): None&#10;+ add_vehicle(vehicle: Vehicle): None&#10;+ remove_vehicle(vehicle: Vehicle): None&#10;+ __iter__()&#10;+ __next__()&#10;+ search_and_display(): None&#10;+ show_available(): None&#10;" style="text;strokeColor=none;fillColor=none;align=left;verticalAlign=top;spacingLeft=4;spacingRight=4;overflow=hidden;rotatable=0;points=[[0,0.5],[1,0.5]];portConstraint=eastwest;" vertex="1" parent="7">
                    <mxGeometry y="88" width="250" height="112" as="geometry"/>
                </mxCell>
                <mxCell id="11" value="Vehicle" style="swimlane;fontStyle=1;align=center;verticalAlign=top;childLayout=stackLayout;horizontal=1;startSize=26;horizontalStack=0;resizeParent=1;resizeParentMax=0;resizeLast=0;collapsible=1;marginBottom=0;" vertex="1" parent="1">
                    <mxGeometry x="440" y="183" width="210" height="160" as="geometry"/>
                </mxCell>
                <mxCell id="12" value="- __model: str&#10;- __base_price: int&#10;- __color: str&#10;- __model_year: int&#10;- __options: list[Option]&#10;&#10;" style="text;strokeColor=none;fillColor=none;align=left;verticalAlign=top;spacingLeft=4;spacingRight=4;overflow=hidden;rotatable=0;points=[[0,0.5],[1,0.5]];portConstraint=eastwest;" vertex="1" parent="11">
                    <mxGeometry y="26" width="210" height="84" as="geometry"/>
                </mxCell>
                <mxCell id="13" value="" style="line;strokeWidth=1;fillColor=none;align=left;verticalAlign=middle;spacingTop=-1;spacingLeft=3;spacingRight=3;rotatable=0;labelPosition=right;points=[];portConstraint=eastwest;strokeColor=inherit;" vertex="1" parent="11">
                    <mxGeometry y="110" width="210" height="8" as="geometry"/>
                </mxCell>
                <mxCell id="14" value="+ calculate_final_price(): int&#10;+ add_option(option: Option): None" style="text;strokeColor=none;fillColor=none;align=left;verticalAlign=top;spacingLeft=4;spacingRight=4;overflow=hidden;rotatable=0;points=[[0,0.5],[1,0.5]];portConstraint=eastwest;" vertex="1" parent="11">
                    <mxGeometry y="118" width="210" height="42" as="geometry"/>
                </mxCell>
                <mxCell id="15" value="Option" style="swimlane;fontStyle=1;align=center;verticalAlign=top;childLayout=stackLayout;horizontal=1;startSize=26;horizontalStack=0;resizeParent=1;resizeParentMax=0;resizeLast=0;collapsible=1;marginBottom=0;" vertex="1" parent="1">
                    <mxGeometry x="908" y="219" width="190" height="98" as="geometry"/>
                </mxCell>
                <mxCell id="16" value="- __enhanced_safety_feature: int&#10;- __security: int&#10;- __entertainment: int&#10;- __sunroof: int " style="text;strokeColor=none;fillColor=none;align=left;verticalAlign=top;spacingLeft=4;spacingRight=4;overflow=hidden;rotatable=0;points=[[0,0.5],[1,0.5]];portConstraint=eastwest;" vertex="1" parent="15">
                    <mxGeometry y="26" width="190" height="64" as="geometry"/>
                </mxCell>
                <mxCell id="17" value="" style="line;strokeWidth=1;fillColor=none;align=left;verticalAlign=middle;spacingTop=-1;spacingLeft=3;spacingRight=3;rotatable=0;labelPosition=right;points=[];portConstraint=eastwest;strokeColor=inherit;" vertex="1" parent="15">
                    <mxGeometry y="90" width="190" height="8" as="geometry"/>
                </mxCell>
                <mxCell id="23" value="Truck" style="swimlane;fontStyle=1;align=center;verticalAlign=top;childLayout=stackLayout;horizontal=1;startSize=26;horizontalStack=0;resizeParent=1;resizeParentMax=0;resizeLast=0;collapsible=1;marginBottom=0;" vertex="1" parent="1">
                    <mxGeometry x="353" y="749" width="190" height="98" as="geometry"/>
                </mxCell>
                <mxCell id="24" value="- __cargo_bed_size: int&#10;- __spare_tire_number: int" style="text;strokeColor=none;fillColor=none;align=left;verticalAlign=top;spacingLeft=4;spacingRight=4;overflow=hidden;rotatable=0;points=[[0,0.5],[1,0.5]];portConstraint=eastwest;" vertex="1" parent="23">
                    <mxGeometry y="26" width="190" height="64" as="geometry"/>
                </mxCell>
                <mxCell id="25" value="" style="line;strokeWidth=1;fillColor=none;align=left;verticalAlign=middle;spacingTop=-1;spacingLeft=3;spacingRight=3;rotatable=0;labelPosition=right;points=[];portConstraint=eastwest;strokeColor=inherit;" vertex="1" parent="23">
                    <mxGeometry y="90" width="190" height="8" as="geometry"/>
                </mxCell>
                <mxCell id="26" value="Sedan" style="swimlane;fontStyle=1;align=center;verticalAlign=top;childLayout=stackLayout;horizontal=1;startSize=26;horizontalStack=0;resizeParent=1;resizeParentMax=0;resizeLast=0;collapsible=1;marginBottom=0;" vertex="1" parent="1">
                    <mxGeometry x="159" y="591" width="190" height="98" as="geometry"/>
                </mxCell>
                <mxCell id="27" value="- __transmission: str   e.g. Manual&#10;- __package: str" style="text;strokeColor=none;fillColor=none;align=left;verticalAlign=top;spacingLeft=4;spacingRight=4;overflow=hidden;rotatable=0;points=[[0,0.5],[1,0.5]];portConstraint=eastwest;" vertex="1" parent="26">
                    <mxGeometry y="26" width="190" height="64" as="geometry"/>
                </mxCell>
                <mxCell id="28" value="" style="line;strokeWidth=1;fillColor=none;align=left;verticalAlign=middle;spacingTop=-1;spacingLeft=3;spacingRight=3;rotatable=0;labelPosition=right;points=[];portConstraint=eastwest;strokeColor=inherit;" vertex="1" parent="26">
                    <mxGeometry y="90" width="190" height="8" as="geometry"/>
                </mxCell>
                <mxCell id="29" value="SUV" style="swimlane;fontStyle=1;align=center;verticalAlign=top;childLayout=stackLayout;horizontal=1;startSize=26;horizontalStack=0;resizeParent=1;resizeParentMax=0;resizeLast=0;collapsible=1;marginBottom=0;" vertex="1" parent="1">
                    <mxGeometry x="614" y="749" width="190" height="98" as="geometry"/>
                </mxCell>
                <mxCell id="30" value="- __roof_rack: bool&#10;- __navigation_system: bool" style="text;strokeColor=none;fillColor=none;align=left;verticalAlign=top;spacingLeft=4;spacingRight=4;overflow=hidden;rotatable=0;points=[[0,0.5],[1,0.5]];portConstraint=eastwest;" vertex="1" parent="29">
                    <mxGeometry y="26" width="190" height="64" as="geometry"/>
                </mxCell>
                <mxCell id="31" value="" style="line;strokeWidth=1;fillColor=none;align=left;verticalAlign=middle;spacingTop=-1;spacingLeft=3;spacingRight=3;rotatable=0;labelPosition=right;points=[];portConstraint=eastwest;strokeColor=inherit;" vertex="1" parent="29">
                    <mxGeometry y="90" width="190" height="8" as="geometry"/>
                </mxCell>
                <mxCell id="32" value="Minivan" style="swimlane;fontStyle=1;align=center;verticalAlign=top;childLayout=stackLayout;horizontal=1;startSize=26;horizontalStack=0;resizeParent=1;resizeParentMax=0;resizeLast=0;collapsible=1;marginBottom=0;" vertex="1" parent="1">
                    <mxGeometry x="789" y="579" width="260" height="98" as="geometry"/>
                </mxCell>
                <mxCell id="33" value="- __seat_capacity: int&#10;- __hybrid_battery_warranty_months: int" style="text;strokeColor=none;fillColor=none;align=left;verticalAlign=top;spacingLeft=4;spacingRight=4;overflow=hidden;rotatable=0;points=[[0,0.5],[1,0.5]];portConstraint=eastwest;" vertex="1" parent="32">
                    <mxGeometry y="26" width="260" height="64" as="geometry"/>
                </mxCell>
                <mxCell id="34" value="" style="line;strokeWidth=1;fillColor=none;align=left;verticalAlign=middle;spacingTop=-1;spacingLeft=3;spacingRight=3;rotatable=0;labelPosition=right;points=[];portConstraint=eastwest;strokeColor=inherit;" vertex="1" parent="32">
                    <mxGeometry y="90" width="260" height="8" as="geometry"/>
                </mxCell>
                <mxCell id="36" value="User" style="swimlane;fontStyle=1;align=center;verticalAlign=top;childLayout=stackLayout;horizontal=1;startSize=26;horizontalStack=0;resizeParent=1;resizeParentMax=0;resizeLast=0;collapsible=1;marginBottom=0;" vertex="1" parent="1">
                    <mxGeometry x="-227" y="492" width="210" height="120" as="geometry"/>
                </mxCell>
                <mxCell id="37" value="- __name: int" style="text;strokeColor=none;fillColor=none;align=left;verticalAlign=top;spacingLeft=4;spacingRight=4;overflow=hidden;rotatable=0;points=[[0,0.5],[1,0.5]];portConstraint=eastwest;" vertex="1" parent="36">
                    <mxGeometry y="26" width="210" height="24" as="geometry"/>
                </mxCell>
                <mxCell id="38" value="" style="line;strokeWidth=1;fillColor=none;align=left;verticalAlign=middle;spacingTop=-1;spacingLeft=3;spacingRight=3;rotatable=0;labelPosition=right;points=[];portConstraint=eastwest;strokeColor=inherit;" vertex="1" parent="36">
                    <mxGeometry y="50" width="210" height="8" as="geometry"/>
                </mxCell>
                <mxCell id="39" value="+ final_least_expensive(): Vehicle&#10;+ final_most_expensive(): Vehicle&#10;+ price_calculation(): int" style="text;strokeColor=none;fillColor=none;align=left;verticalAlign=top;spacingLeft=4;spacingRight=4;overflow=hidden;rotatable=0;points=[[0,0.5],[1,0.5]];portConstraint=eastwest;" vertex="1" parent="36">
                    <mxGeometry y="58" width="210" height="62" as="geometry"/>
                </mxCell>
                <mxCell id="40" value="*" style="endArrow=open;html=1;endSize=12;startArrow=diamondThin;startSize=14;startFill=1;edgeStyle=orthogonalEdgeStyle;align=left;verticalAlign=bottom;entryX=0.011;entryY=0.391;entryDx=0;entryDy=0;entryPerimeter=0;" edge="1" parent="1" target="16">
                    <mxGeometry x="-0.9125" y="10" relative="1" as="geometry">
                        <mxPoint x="650" y="271" as="sourcePoint"/>
                        <mxPoint x="900" y="260" as="targetPoint"/>
                        <mxPoint as="offset"/>
                    </mxGeometry>
                </mxCell>
                <mxCell id="45" value="Extends" style="endArrow=block;endSize=16;endFill=0;html=1;entryX=0.511;entryY=1.138;entryDx=0;entryDy=0;entryPerimeter=0;" edge="1" parent="1">
                    <mxGeometry width="160" relative="1" as="geometry">
                        <mxPoint x="544" y="180" as="sourcePoint"/>
                        <mxPoint x="543.54" y="-15.412000000000035" as="targetPoint"/>
                    </mxGeometry>
                </mxCell>
                <mxCell id="46" value="Extends" style="endArrow=block;endSize=16;endFill=0;html=1;entryX=0.706;entryY=1.077;entryDx=0;entryDy=0;entryPerimeter=0;exitX=0.5;exitY=0;exitDx=0;exitDy=0;" edge="1" parent="1" source="15" target="4">
                    <mxGeometry width="160" relative="1" as="geometry">
                        <mxPoint x="902" y="218" as="sourcePoint"/>
                        <mxPoint x="901.54" y="22.587999999999965" as="targetPoint"/>
                        <Array as="points"/>
                    </mxGeometry>
                </mxCell>
                <mxCell id="47" value="Extends" style="endArrow=block;endSize=16;endFill=0;html=1;entryX=0.123;entryY=1.138;entryDx=0;entryDy=0;entryPerimeter=0;" edge="1" parent="1" target="4">
                    <mxGeometry width="160" relative="1" as="geometry">
                        <mxPoint x="150.45999999999998" y="150" as="sourcePoint"/>
                        <mxPoint x="149.99999999999994" y="-45.412000000000035" as="targetPoint"/>
                    </mxGeometry>
                </mxCell>
                <mxCell id="48" value="Extends" style="endArrow=block;endSize=16;endFill=0;html=1;entryX=0.439;entryY=1.03;entryDx=0;entryDy=0;entryPerimeter=0;" edge="1" parent="1" target="10">
                    <mxGeometry width="160" relative="1" as="geometry">
                        <mxPoint x="-129.99999999999994" y="492" as="sourcePoint"/>
                        <mxPoint x="218.75999999999982" y="326.58799999999997" as="targetPoint"/>
                    </mxGeometry>
                </mxCell>
                <mxCell id="41" value="*" style="endArrow=open;html=1;endSize=12;startArrow=diamondThin;startSize=14;startFill=0;edgeStyle=orthogonalEdgeStyle;align=left;verticalAlign=bottom;" edge="1" parent="1">
                    <mxGeometry x="-0.9625" y="9" relative="1" as="geometry">
                        <mxPoint x="277" y="269" as="sourcePoint"/>
                        <mxPoint x="437" y="269" as="targetPoint"/>
                        <mxPoint as="offset"/>
                    </mxGeometry>
                </mxCell>
                <mxCell id="53" value="" style="endArrow=block;endSize=16;endFill=0;html=1;entryX=0.286;entryY=1.167;entryDx=0;entryDy=0;entryPerimeter=0;" edge="1" parent="1" target="14">
                    <mxGeometry x="0.099" y="25" width="160" relative="1" as="geometry">
                        <mxPoint x="250" y="590" as="sourcePoint"/>
                        <mxPoint x="433" y="560" as="targetPoint"/>
                        <mxPoint as="offset"/>
                    </mxGeometry>
                </mxCell>
                <mxCell id="54" value="" style="endArrow=block;endSize=16;endFill=0;html=1;exitX=0.511;exitY=0.01;exitDx=0;exitDy=0;exitPerimeter=0;" edge="1" parent="1" source="23">
                    <mxGeometry x="0.099" y="25" width="160" relative="1" as="geometry">
                        <mxPoint x="450" y="740" as="sourcePoint"/>
                        <mxPoint x="530" y="351" as="targetPoint"/>
                        <mxPoint as="offset"/>
                    </mxGeometry>
                </mxCell>
                <mxCell id="55" value="" style="endArrow=block;endSize=16;endFill=0;html=1;exitX=0.453;exitY=0.01;exitDx=0;exitDy=0;exitPerimeter=0;" edge="1" parent="1" source="29">
                    <mxGeometry x="0.099" y="25" width="160" relative="1" as="geometry">
                        <mxPoint x="690" y="730" as="sourcePoint"/>
                        <mxPoint x="560" y="350" as="targetPoint"/>
                        <mxPoint as="offset"/>
                    </mxGeometry>
                </mxCell>
                <mxCell id="56" value="" style="endArrow=block;endSize=16;endFill=0;html=1;exitX=0.5;exitY=0;exitDx=0;exitDy=0;" edge="1" parent="1" source="32">
                    <mxGeometry x="0.099" y="25" width="160" relative="1" as="geometry">
                        <mxPoint x="900" y="570" as="sourcePoint"/>
                        <mxPoint x="600" y="350" as="targetPoint"/>
                        <mxPoint as="offset"/>
                        <Array as="points"/>
                    </mxGeometry>
                </mxCell>
            </root>
        </mxGraphModel>
    </diagram>
</mxfile>